<?xml version="1.0" standalone="no"?>
<!DOCTYPE svg PUBLIC "-//W3C//DTD SVG 1.1//EN" "http://www.w3.org/Graphics/SVG/1.1/DTD/svg11.dtd" >
<svg xmlns="http://www.w3.org/2000/svg">
<metadata>
This is a custom SVG webfont generated by Font Squirrel.
</metadata>
<defs>
<font id="webfontqmuSk9p0" horiz-adv-x="500" >
<font-face units-per-em="1000" ascent="800" descent="-200" />
<missing-glyph horiz-adv-x="250" />
<glyph unicode=" "  horiz-adv-x="250" />
<glyph unicode="&#x09;" horiz-adv-x="250" />
<glyph unicode="&#xa0;" horiz-adv-x="250" />
<glyph unicode="!" horiz-adv-x="334" d="M84 799v-312l38 -256h90l38 256v312h-166zM250 0v184h-166v-184h166z" />
<glyph unicode="&#x22;" d="M282 517h142v282h-142v-282zM76 517h142v282h-142v-282z" />
<glyph unicode="#" d="M29 467h74l-15 -131h-89v-118h74l-26 -218h115l26 218h82l-26 -218h113l25 218h89v118h-74l15 131h89v118h-74l25 201h-114l-24 -201h-81l24 201h-115l-24 -201h-89v-118zM300 467l-16 -131h-82l17 131h81z" />
<glyph unicode="$" d="M29 175q0 -92 51 -140t128 -48v-72h82v72q182 30 182 212q0 49 -15 90t-40 74t-52 58.5t-66 57.5q-52 42 -75.5 69t-23.5 57q0 24 13 41t32 17q29 0 40 -18.5t11 -48.5v-53h166v51q0 95 -40 146.5t-132 58.5v72h-82v-72q-81 -7 -130.5 -60.5t-49.5 -142.5q0 -43 13.5 -80 t36 -66.5t46.5 -51.5t62 -54q55 -45 81.5 -76t26.5 -70q0 -36 -11.5 -55.5t-35.5 -19.5q-35 0 -43.5 19t-8.5 60v63h-166v-90z" />
<glyph unicode="%" horiz-adv-x="889" d="M628 286q0 17 5.5 25.5t23.5 8.5q17 0 22 -8.5t5 -25.5v-177q0 -17 -5 -25.5t-22 -8.5q-18 0 -23.5 8.5t-5.5 25.5v177zM93 500q0 -65 37 -93.5t104 -28.5q66 0 102.5 28.5t36.5 93.5v177q0 65 -36.5 93.5t-102.5 28.5q-67 0 -104 -28.5t-37 -93.5v-177zM205 677 q0 17 5.5 25.5t23.5 8.5q17 0 22 -8.5t5 -25.5v-177q0 -17 -5 -25.5t-22 -8.5q-18 0 -23.5 8.5t-5.5 25.5v177zM292 -26h96l209 838h-93zM516 109q0 -65 37 -93.5t104 -28.5q66 0 102.5 28.5t36.5 93.5v177q0 65 -36.5 93.5t-102.5 28.5q-67 0 -104 -28.5t-37 -93.5v-177z " />
<glyph unicode="&#x26;" horiz-adv-x="667" d="M480 444q0 -14 -4.5 -35.5t-11 -43t-11.5 -36.5t-7 -15l-70 126q51 38 83.5 92.5t32.5 112.5q0 78 -51 116t-132 38q-80 0 -131.5 -44t-51.5 -123q0 -41 17.5 -80.5t48.5 -91.5l1 -2q-35 -17 -62.5 -45.5t-46.5 -62t-28.5 -66t-9.5 -58.5q0 -33 5.5 -70.5t25.5 -76.5 t63 -65.5t112 -26.5q46 0 89.5 16t74.5 46l25 -49h177l-94 170q43 50 66.5 123.5t30.5 150.5h-141zM354 160q-16 -14 -35 -22.5t-38 -8.5q-33 0 -54 27t-21 61q0 37 12.5 61t41.5 58zM316 681q21 0 30.5 -12t9.5 -33q0 -23 -12.5 -41t-33.5 -38q-2 4 -5 9q-13 22 -22 40.5 t-9 33.5q0 41 42 41z" />
<glyph unicode="'" horiz-adv-x="278" d="M68 517h142v282h-142v-282z" />
<glyph unicode="(" horiz-adv-x="333" d="M294 799q-102 -7 -160.5 -72.5t-62.5 -170.5v-435q3 -99 63 -156.5t160 -74.5v88q-25 0 -39 9.5t-20.5 24.5t-8 32t-1.5 41v507q0 30 1.5 49t8 35t20.5 25.5t39 9.5v88z" />
<glyph unicode=")" horiz-adv-x="333" d="M39 -110q100 17 160 74.5t63 156.5v435q-4 105 -62.5 170.5t-160.5 72.5v-88q25 0 39.5 -9.5t20.5 -25.5t7.5 -35t1.5 -49v-507q0 -24 -1.5 -40.5t-8 -32t-20.5 -25t-39 -9.5v-88z" />
<glyph unicode="*" horiz-adv-x="389" d="M310 517l40 63l-93 55l93 55l-35 67l-84 -58l7 100h-84l6 -101l-82 60l-37 -68l89 -56l-91 -55l42 -64l79 58l-3 -104h82l-8 104z" />
<glyph unicode="+" horiz-adv-x="600" d="M229 396h-182v-142h182v-182h142v182h182v142h-182v182h-142v-182z" />
<glyph unicode="," horiz-adv-x="250" d="M42 0h82q-10 -32 -31.5 -60.5t-50.5 -53.5h93q9 2 21.5 14.5t24.5 32t19.5 40.5t7.5 39v172h-166v-184z" />
<glyph unicode="-" horiz-adv-x="333" d="M35 264h263v148h-263v-148z" />
<glyph unicode="." horiz-adv-x="250" d="M208 0v184h-166v-184h166z" />
<glyph unicode="/" horiz-adv-x="278" d="M-41 -13h142l218 825h-142z" />
<glyph unicode="0" d="M30 187q0 -93 57.5 -146.5t162.5 -53.5q106 0 163 53.5t57 146.5v412q0 93 -57.5 146.5t-162.5 53.5q-106 0 -163 -53.5t-57 -146.5v-412zM208 612q0 29 11 40t31 11q19 0 30.5 -11t11.5 -40v-438q0 -29 -11.5 -40t-30.5 -11q-20 0 -31 11t-11 40v438z" />
<glyph unicode="1" d="M51 590h126v-590h172v786h-150q-14 -41 -56.5 -61t-91.5 -23v-112z" />
<glyph unicode="2" d="M37 510h166v79q0 35 9.5 54.5t39.5 19.5t39.5 -19.5t9.5 -54.5q0 -59 -26.5 -99t-83.5 -94q-38 -37 -63.5 -65t-49 -67.5t-39 -93t-18.5 -121.5v-49h452v148h-269q2 8 8 22q5 13 10 22q22 37 48.5 66t68.5 69q35 33 57.5 56.5t41.5 53.5t30 68t11 85q0 103 -56 156 t-160 53q-116 0 -168 -54.5t-58 -172.5v-62z" />
<glyph unicode="3" d="M24 190q0 -102 58.5 -152.5t164.5 -50.5q65 0 108.5 16.5t68.5 49t35.5 79t10.5 110.5q0 34 -3.5 62t-13.5 50q-22 54 -77 72q53 25 70.5 66.5t17.5 107.5q0 107 -56.5 153t-160.5 46q-118 0 -169 -54t-51 -159q0 -2 1 -15v-16h171v50q0 58 45 58q24 0 33 -14.5t9 -39.5 v-65q0 -28 -22.5 -44.5t-53.5 -16.5h-31v-130q36 0 58 -5.5t34 -18t16.5 -33.5t4.5 -57v-56q0 -26 -11 -43t-37 -17t-37 17t-11 43v82h-172v-75z" />
<glyph unicode="4" d="M19 149h230v-149h172v149h60v142h-60v337h-67q-12 -55 -41.5 -118.5t-63.5 -110.5v-108h-129q37 55 70 114.5t60 123.5t45 129.5t24 127.5h-185q-3 -54 -12.5 -116t-24.5 -125t-35 -122.5t-43 -108.5v-165z" />
<glyph unicode="5" d="M42 355h154q0 26 11 43t37 17t37 -17t11 -43v-172q0 -26 -11 -43t-37 -17t-37 17t-11 43v76h-172v-69q0 -102 58.5 -152.5t164.5 -50.5q122 0 172.5 65.5t50.5 195.5v111q0 90 -44.5 141t-139.5 51q-19 0 -46 -8t-48 -23h-2v118h255v148h-403v-431z" />
<glyph unicode="6" d="M30 187q0 -93 57.5 -146.5t162.5 -53.5q106 0 163 53.5t57 146.5v155q-1 48 -9 85.5t-26.5 65t-50.5 43t-80 15.5q-37 0 -58 -8.5t-42 -36.5l-2 2v89q0 32 11 49t37 17t37 -17t11 -49h160q0 106 -53.5 154t-154.5 48q-106 0 -163 -53.5t-57 -146.5v-412zM208 364 q0 29 11 40t31 11q19 0 30.5 -11t11.5 -40v-190q0 -29 -11.5 -40t-30.5 -11q-20 0 -31 11t-11 40v190z" />
<glyph unicode="7" d="M12 638h286l-12 -24q-19 -37 -25 -50q-63 -130 -101.5 -244.5t-51.5 -235.5q-6 -54 -7 -84h190q1 19 2 29q2 37 4 59q4 59 15 123.5t27.5 128t38.5 124t49 112.5q16 32 43 77v133h-458v-148z" />
<glyph unicode="8" d="M30 187q0 -93 57.5 -146.5t162.5 -53.5q106 0 163 53.5t57 146.5v66q0 72 -16.5 110t-76.5 59q45 19 65.5 53.5t21.5 69.5v54q0 34 -4.5 63.5t-24.5 61.5t-65 53.5t-120 21.5t-120 -21.5t-64.5 -53.5t-24.5 -61.5t-5 -63.5v-54q2 -36 21.5 -70.5t62.5 -52.5 q-32 -12 -51 -31.5t-27 -42.5t-10 -44t-2 -51v-66zM208 301q0 29 11 40t31 11q19 0 30.5 -11t11.5 -40v-127q0 -29 -11.5 -40t-30.5 -11q-20 0 -31 11t-11 40v127zM208 612q0 29 11 40t31 11q19 0 30.5 -11t11.5 -40v-73q0 -29 -11.5 -40t-30.5 -11q-20 0 -31 11t-11 40v73z " />
<glyph unicode="9" d="M470 599q0 93 -57.5 146.5t-162.5 53.5q-106 0 -163 -53.5t-57 -146.5v-155q1 -48 9 -85t26.5 -65t50.5 -43.5t80 -15.5q37 0 58 9t42 36l2 -2v-89q0 -32 -11 -49t-37 -17t-37 17t-11 49h-160q0 -106 53.5 -154t154.5 -48q106 0 163 53.5t57 146.5v412zM292 422 q0 -29 -11 -40t-31 -11q-19 0 -30.5 11t-11.5 40v190q0 29 11.5 40t30.5 11q20 0 31 -11t11 -40v-190z" />
<glyph unicode=":" horiz-adv-x="250" d="M42 397h166v184h-166v-184zM42 0h166v184h-166v-184z" />
<glyph unicode=";" horiz-adv-x="250" d="M42 0h82q-10 -32 -31.5 -60.5t-50.5 -53.5h93q9 2 21.5 14.5t24.5 32t19.5 40.5t7.5 39v172h-166v-184zM42 397h166v184h-166v-184z" />
<glyph unicode="&#x3c;" horiz-adv-x="600" d="M553 64v154l-306 106v2l306 106v154l-506 -190v-142z" />
<glyph unicode="=" horiz-adv-x="600" d="M553 520h-506v-142h506v142zM553 272h-506v-142h506v142z" />
<glyph unicode="&#x3e;" horiz-adv-x="600" d="M47 64l506 190v142l-506 190v-154l306 -106v-2l-306 -106v-154z" />
<glyph unicode="?" d="M271 231q0 60 25.5 101t77.5 93q51 53 76.5 93.5t25.5 100.5q0 97 -58.5 145t-162.5 48q-100 0 -158.5 -55t-58.5 -144v-67h154v55q0 42 13.5 67.5t42.5 25.5q33 0 44.5 -22t11.5 -60t-18 -68t-54 -71q-45 -52 -68 -94.5t-23 -102.5v-45h130zM122 0h166v184h-166v-184z " />
<glyph unicode="@" horiz-adv-x="880" d="M424 280q-39 0 -61.5 27t-22.5 67q0 46 31.5 82t77.5 36q40 0 65.5 -26t25.5 -67q0 -49 -32.5 -84t-83.5 -35zM569 545q-48 65 -136 65q-49 0 -90.5 -20.5t-71 -56.5t-45.5 -82t-16 -95q0 -40 15 -76.5t41 -64.5t59 -43.5t68 -15.5t61.5 15t44.5 40h3q1 -26 19 -40.5 t50 -14.5q30 0 75.5 16t91 53t76.5 100t31 152q0 75 -32 137t-87 106.5t-124 68t-143 23.5q-87 0 -164.5 -31t-136 -87.5t-91 -132.5t-32.5 -163q0 -88 33.5 -164t93 -131.5t137.5 -85.5t166 -30q101 0 184 43t143 124h-109q-42 -32 -95 -49.5t-114 -17.5q-70 0 -129 21.5 t-102 62t-66.5 98t-23.5 129.5q0 68 21 125.5t61 100t96.5 65.5t124.5 23q131 0 210 -70.5t79 -199.5q0 -48 -8.5 -81.5t-22 -52.5t-29 -26.5t-30.5 -7.5q-27 0 -27 23q0 10 5 30l2 7l48 264h-104z" />
<glyph unicode="A" horiz-adv-x="556" d="M7 0h184l19 142h129l17 -142h193l-150 799h-244zM276 675h2l43 -391h-92z" />
<glyph unicode="B" horiz-adv-x="556" d="M41 0h261q60 0 101.5 17.5t66 49.5t35 74.5t10.5 95.5q0 80 -28 126.5t-93 57.5v2q61 21 81 67.5t20 120.5q0 101 -48 144.5t-151 43.5h-255v-799zM225 353h42q39 0 51.5 -28.5t12.5 -79.5q0 -64 -12.5 -86.5t-55.5 -22.5h-38v217zM225 663h41q32 0 44.5 -21t12.5 -66 t-12.5 -69t-51.5 -24h-34v180z" />
<glyph unicode="C" horiz-adv-x="556" d="M41 218q0 -107 64 -169t173 -62t173 62t64 169v101h-184v-117q0 -12 -1 -23t-6 -23t-16 -19.5t-30 -7.5t-30 7.5t-16 19.5t-6 23t-1 23v395q0 15 1 26t6 22t16 18t30 7t30 -7t16 -18t6 -22t1 -26v-90h184v74q0 113 -65 172t-172 59t-172 -59t-65 -172v-363z" />
<glyph unicode="D" horiz-adv-x="556" d="M225 663h29q77 0 77 -68v-391q0 -68 -77 -68h-29v527zM41 0h274q38 0 73.5 12t64 37t45.5 64t17 92v380q0 49 -9.5 87.5t-32.5 67t-62 44t-96 15.5h-274v-799z" />
<glyph unicode="E" d="M41 0h418v154h-234v178h197v154h-197v159h225v154h-409v-799z" />
<glyph unicode="F" horiz-adv-x="444" d="M41 0h184v332h179v154h-179v159h200v154h-384v-799z" />
<glyph unicode="G" horiz-adv-x="556" d="M41 218q0 -48 8.5 -89t27.5 -73t52 -50.5t81 -18.5q49 0 83 19t59 59h2v-65h161v440h-243v-148h65v-103q0 -60 -59 -60q-19 0 -30 7.5t-16 19.5t-6 23t-1 23v395q0 11 2.5 23.5t8.5 23.5t17.5 18.5t28.5 7.5q30 0 44 -16t14 -47v-80h175v89q0 54 -18.5 92t-51.5 61 t-75 33t-92 10q-107 0 -172 -59t-65 -172v-363z" />
<glyph unicode="H" horiz-adv-x="556" d="M41 0h184v340h106v-340h184v799h-184v-299h-106v299h-184v-799z" />
<glyph unicode="I" horiz-adv-x="278" d="M47 0h184v799h-184v-799z" />
<glyph unicode="J" d="M459 799h-184v-618q0 -28 -11 -40t-27 -12q-22 0 -28.5 13.5t-6.5 37.5v136h-178v-117q0 -65 19 -107.5t50.5 -65t67.5 -31t76 -8.5q112 0 167 51.5t55 160.5v600z" />
<glyph unicode="K" horiz-adv-x="556" d="M41 0h178v220l43 66l82 -286h196l-154 468l153 331h-195l-122 -327h-3v327h-178v-799z" />
<glyph unicode="L" horiz-adv-x="444" d="M41 0h384v154h-200v645h-184v-799z" />
<glyph unicode="M" horiz-adv-x="778" d="M46 0h178v621h2l103 -621h120l103 621h2v-621h178v799h-290l-52 -396h-2l-52 396h-290v-799z" />
<glyph unicode="N" horiz-adv-x="611" d="M41 0h178v494h2l149 -494h200v799h-178v-471h-2l-148 471h-201v-799z" />
<glyph unicode="O" horiz-adv-x="556" d="M225 597q0 15 1 26t6 22t16 18t30 7t30 -7t16 -18t6 -22t1 -26v-395q0 -12 -1 -23t-6 -23t-16 -19.5t-30 -7.5t-30 7.5t-16 19.5t-6 23t-1 23v395zM41 218q0 -107 64 -169t173 -62t173 62t64 169v363q0 113 -65 172t-172 59t-172 -59t-65 -172v-363z" />
<glyph unicode="P" horiz-adv-x="556" d="M225 657h21q54 0 73.5 -15t19.5 -82q0 -57 -13 -79t-55 -22h-46v198zM41 0h184v317h104q59 0 98 20t59.5 53.5t28.5 75t8 90.5q0 78 -16 126t-50 73.5t-86 34.5t-133 9h-197v-799z" />
<glyph unicode="Q" horiz-adv-x="556" d="M225 597q0 15 1 26t6 22t16 18t30 7t30 -7t16 -18t6 -22t1 -26v-395q0 -12 -1 -23t-6 -23t-16 -19.5t-30 -7.5t-30 7.5t-16 19.5t-6 23t-1 23v395zM41 218q0 -107 64 -169t174 -62l12 -20q29 -49 42 -77l149 15l-71 115q104 65 104 198v363q0 113 -65 172t-172 59 t-172 -59t-65 -172v-363z" />
<glyph unicode="R" horiz-adv-x="556" d="M41 0h184v345h34q38 0 54 -15.5t16 -50.5v-128q0 -58 3.5 -96t17.5 -55h182q-12 15 -15.5 50t-3.5 101v141q0 50 -28.5 83.5t-78.5 43.5v2q68 21 89.5 63.5t21.5 121.5q0 106 -54 149.5t-179 43.5h-243v-799zM225 663h36q49 0 60.5 -19t11.5 -69q0 -49 -10.5 -71.5 t-52.5 -22.5h-45v182z" />
<glyph unicode="S" horiz-adv-x="556" d="M34 271v-86q0 -34 12.5 -68t40.5 -64t74 -48t111 -18q68 0 117 19.5t78 51t42 66.5t13 67q0 49 -10 85t-26.5 62t-35 44t-49.5 42l-32 27l-13 10q-70 52 -105 85.5t-35 63.5q0 28 17 44t46 16q35 0 46.5 -24.5t11.5 -63.5v-43h172v72q0 95 -56.5 148t-173.5 53 q-114 0 -174.5 -54.5t-60.5 -169.5q0 -39 9.5 -69.5t26 -53.5t36.5 -41t52 -43l24 -20q11 -8 16 -12q66 -47 98 -80.5t32 -77.5q0 -27 -17 -44.5t-47 -17.5q-36 0 -49 22.5t-13 60.5v59h-178z" />
<glyph unicode="T" horiz-adv-x="444" d="M11 645h119v-645h184v645h119v154h-422v-154z" />
<glyph unicode="U" horiz-adv-x="556" d="M41 218q0 -107 64 -169t173 -62t173 62t64 169v581h-184v-583q0 -42 -8.5 -61.5t-44.5 -19.5t-44.5 19.5t-8.5 61.5v583h-184v-581z" />
<glyph unicode="V" d="M129 0h228l136 799h-185l-61 -568h-2l-50 568h-188z" />
<glyph unicode="W" horiz-adv-x="833" d="M151 0h205l61 492h2l54 -492h205l140 799h-185l-66 -568h-2l-56 568h-179l-59 -568h-2l-65 568h-189z" />
<glyph unicode="X" horiz-adv-x="556" d="M10 0h191l72 258h2l78 -258h193l-156 425l147 374h-191l-64 -227h-2l-63 227h-198l146 -368z" />
<glyph unicode="Y" d="M158 316v-316h184v329l150 470h-187l-54 -270h-2l-51 270h-190z" />
<glyph unicode="Z" d="M29 645h248l-259 -496v-149h464v154h-261l261 496v149h-453v-154z" />
<glyph unicode="[" horiz-adv-x="333" d="M78 -110h224v100h-70v709h70v100h-224v-909z" />
<glyph unicode="\" horiz-adv-x="278" d="M101 812h-142l218 -825h142z" />
<glyph unicode="]" horiz-adv-x="333" d="M255 -110v909h-224v-100h70v-709h-70v-100h224z" />
<glyph unicode="^" horiz-adv-x="600" d="M206 421l94 238l93 -238h160l-162 365h-182l-162 -365h159z" />
<glyph unicode="_" d="M500 -125v50h-500v-50h500z" />
<glyph unicode="`" horiz-adv-x="278" d="M3 832l109 -136h93l-44 136h-158z" />
<glyph unicode="a" d="M461 452q0 106 -47 153t-161 47q-89 0 -145.5 -43t-56.5 -113v-58h160v52q0 44 44 44q23 0 31.5 -13t8.5 -40q0 -40 -24.5 -60t-77.5 -41l-24 -10q-29 -13 -50.5 -26.5t-39.5 -34.5t-29 -52.5t-11 -74.5q0 -44 5 -77.5t19 -60t42.5 -42t73.5 -15.5q36 0 69.5 16.5 t52.5 45.5h2v-49h158v452zM295 149q0 -24 -10.5 -40t-29.5 -16q-38 0 -38 51v85q0 35 30 57l48 35v-172z" />
<glyph unicode="b" d="M39 0h172v64h2q16 -37 47 -57t73 -20q61 0 94.5 50.5t33.5 140.5v312q0 78 -31.5 120t-93.5 42q-46 0 -74.5 -17t-48.5 -54h-2v218h-172v-799zM211 441q0 35 9.5 58t34.5 23q13 0 23.5 -10.5t10.5 -28.5v-324q0 -23 -9.5 -32.5t-24.5 -9.5t-24.5 9.5t-13.5 24.5t-5 31 t-1 39v220z" />
<glyph unicode="c" d="M39 169q0 -32 9.5 -63t33 -58t65.5 -44t103 -17t103 17t65.5 44t33 58t9.5 63v103h-172v-115q0 -24 -6.5 -38t-32.5 -14q-25 0 -32 14t-7 38v325q0 24 7 38t32 14q26 0 32.5 -14t6.5 -38v-80h172v68q0 32 -9.5 63t-33 58t-65.5 44t-103 17t-103 -17t-65.5 -44t-33 -58 t-9.5 -63v-301z" />
<glyph unicode="d" d="M461 799h-172v-218h-2q-20 37 -48.5 54t-74.5 17q-62 0 -93.5 -42t-31.5 -120v-312q0 -90 33.5 -140.5t94.5 -50.5q42 0 73 20t47 57h2v-64h172v799zM289 221q0 -23 -1 -39t-5 -31t-13 -24.5t-25 -9.5q-15 0 -24.5 9.5t-9.5 32.5v324q0 18 10.5 28.5t23.5 10.5 q25 0 34.5 -23t9.5 -58v-220z" />
<glyph unicode="e" d="M39 169q0 -32 9.5 -63t33 -58t65.5 -44t103 -17t103 17t65.5 44t33 58t9.5 63v68h-172v-80q0 -24 -6.5 -38t-32.5 -14q-25 0 -32 14t-7 38v137h250v176q0 32 -9.5 63t-33 58t-65.5 44t-103 17t-103 -17t-65.5 -44t-33 -58t-9.5 -63v-301zM211 482q0 24 7 38t32 14 q26 0 32.5 -14t6.5 -38v-70h-78v70z" />
<glyph unicode="f" horiz-adv-x="278" d="M11 508h41v-508h172v508h43v124h-49v23q0 16 7 24t25 8h17v112h-65q-37 0 -62.5 -3.5t-45 -15t-31 -36.5t-11.5 -66v-46h-41v-124z" />
<glyph unicode="g" d="M461 639h-167v-71h-2q-19 42 -45.5 63t-70.5 21q-43 0 -70.5 -17t-42 -45.5t-19.5 -63t-5 -75.5v-237q0 -69 37.5 -110.5t93.5 -41.5q42 0 73.5 19.5t44.5 56.5l2 -2v-113q0 -44 -38 -44q-20 0 -28 8q-10 10 -10 33h-166q4 -39 22.5 -66t46.5 -42t62 -21.5t73 -6.5 q110 0 159.5 42.5t49.5 148.5v564zM211 475q0 26 10.5 36.5t24.5 10.5q17 0 30 -19t13 -60v-166q0 -14 -1 -27.5t-5 -28t-13 -25t-24 -10.5t-25 11.5t-10 35.5v242z" />
<glyph unicode="h" d="M39 0h172v437q0 9 1 18.5t4.5 19t11.5 16.5t22 7q25 0 32 -17t7 -44v-437h172v515q0 60 -32 98.5t-91 38.5q-44 0 -73 -17.5t-52 -54.5h-2v219h-172v-799z" />
<glyph unicode="i" horiz-adv-x="278" d="M53 0h172v639h-172v-639zM53 681h172v118h-172v-118z" />
<glyph unicode="j" horiz-adv-x="278" d="M53 46q0 -21 -8.5 -29.5t-24.5 -8.5q-6 0 -16 2v-120h84q44 0 71.5 13.5t41.5 37t19 54t5 71.5v573h-172v-593zM53 681h172v118h-172v-118z" />
<glyph unicode="k" d="M313 0h176l-103 359l100 280h-176l-94 -288zM39 0h172v799h-172v-799z" />
<glyph unicode="l" horiz-adv-x="278" d="M53 0h172v799h-172v-799z" />
<glyph unicode="m" horiz-adv-x="778" d="M47 0h172v429q0 10 1 20t5 21.5t12.5 19.5t23.5 8t24 -7t12.5 -18t4.5 -21t1 -23v-429h172v429q0 10 1 20t5 21.5t12.5 19.5t23.5 8t24 -7t12.5 -18t4.5 -21t1 -23v-429h172v515q0 61 -32.5 99t-93.5 38q-55 0 -81.5 -21t-55.5 -71q-10 47 -42 69.5t-77 22.5 q-49 0 -78.5 -22t-55.5 -70h-2v79h-166v-639z" />
<glyph unicode="n" d="M39 0h172v437q0 9 1 18.5t4.5 19t11.5 16.5t22 7q25 0 32 -17t7 -44v-437h172v515q0 60 -32 98.5t-91 38.5q-47 0 -76.5 -20.5t-54.5 -63.5h-2v71h-166v-639z" />
<glyph unicode="o" d="M39 169q0 -32 9.5 -63t33 -58t65.5 -44t103 -17t103 17t65.5 44t33 58t9.5 63v301q0 32 -9.5 63t-33 58t-65.5 44t-103 17t-103 -17t-65.5 -44t-33 -58t-9.5 -63v-301zM211 482q0 24 7 38t32 14q26 0 32.5 -14t6.5 -38v-325q0 -24 -6.5 -38t-32.5 -14q-25 0 -32 14t-7 38 v325z" />
<glyph unicode="p" d="M39 -110h172v174h2q16 -37 47 -57t73 -20q61 0 94.5 50.5t33.5 140.5v312q0 78 -31.5 120t-93.5 42q-46 0 -74.5 -17t-48.5 -54h-2v58h-172v-749zM211 441q0 35 9.5 58t34.5 23q13 0 23.5 -10.5t10.5 -28.5v-324q0 -23 -9.5 -32.5t-24.5 -9.5t-24.5 9.5t-13.5 24.5t-5 31 t-1 39v220z" />
<glyph unicode="q" d="M461 639h-172v-58h-2q-20 37 -48.5 54t-74.5 17q-62 0 -93.5 -42t-31.5 -120v-312q0 -90 33.5 -140.5t94.5 -50.5q42 0 73 20t47 57h2v-174h172v749zM289 221q0 -23 -1 -39t-5 -31t-13 -24.5t-25 -9.5q-15 0 -24.5 9.5t-9.5 32.5v324q0 18 10.5 28.5t23.5 10.5 q25 0 34.5 -23t9.5 -58v-220z" />
<glyph unicode="r" horiz-adv-x="333" d="M39 0h172v363q0 37 17.5 59t58.5 22h40v208q-26 0 -45 -9.5t-32 -25t-21.5 -33t-19.5 -46.5q-3 -8 -5 -12h-2v113h-163v-639z" />
<glyph unicode="s" horiz-adv-x="444" d="M24 159q0 -84 45 -128t153 -44q65 0 106 20.5t60.5 50.5t25.5 59.5t6 57.5q0 35 -9.5 63.5t-25.5 49.5t-35 38t-48 39q-15 13 -44 35q-38 28 -56 47t-18 44q0 43 38 43q23 0 30 -15t7 -35v-34h154v34q0 86 -49.5 127t-141.5 41q-87 0 -139.5 -47.5t-52.5 -136.5 q0 -63 30.5 -106t84.5 -84l29 -22q45 -32 65.5 -54t20.5 -50q0 -47 -38 -47q-25 0 -34.5 16.5t-9.5 40.5v39h-154v-42z" />
<glyph unicode="t" horiz-adv-x="278" d="M52 102q0 -36 10 -59t28 -35t41.5 -16.5t54.5 -4.5h83v130h-22q-15 0 -19 14.5t-4 34.5v342h43v124h-43v139h-172v-139h-43v-124h43v-406z" />
<glyph unicode="u" d="M461 639h-172v-437q0 -9 -1 -18t-4.5 -19t-11.5 -17t-22 -7q-25 0 -32 17t-7 44v437h-172v-515q0 -60 32 -98.5t91 -38.5q47 0 76.5 20.5t54.5 63.5h2v-71h166v639z" />
<glyph unicode="v" horiz-adv-x="444" d="M121 0h201l117 639h-172l-43 -409h-2l-40 409h-177z" />
<glyph unicode="w" horiz-adv-x="722" d="M134 0h181l43 425h2l49 -425h181l123 639h-172l-55 -449h-2l-39 449h-161l-46 -449h-2l-48 449h-179z" />
<glyph unicode="x" d="M12 0h185l53 193h2l48 -193h188l-138 331l133 308h-183l-45 -169h-2l-44 169h-189l136 -308z" />
<glyph unicode="y" horiz-adv-x="444" d="M53 -116h80q54 0 87 9.5t54 30.5q19 19 31 50t22 80l112 585h-169l-44 -449h-2l-43 449h-176l105 -536q5 -25 8 -43.5t3 -28.5q0 -13 -7.5 -18t-21.5 -5h-39v-124z" />
<glyph unicode="z" horiz-adv-x="444" d="M31 503h196l-202 -373v-130h394v136h-209l209 373v130h-388v-136z" />
<glyph unicode="{" horiz-adv-x="333" d="M338 -110v100h-41q-33 0 -43 18.5t-10 46.5v184q0 33 -11.5 54t-28.5 31.5t-34.5 14t-40.5 5.5v2q18 1 37.5 6t37 15.5t29 29.5t11.5 46v191q0 28 10 46.5t43 18.5h41v100h-113q-60 0 -97.5 -37t-37.5 -112v-182q0 -22 -10 -36.5t-25 -22t-30.5 -10t-29.5 -2.5v-106 q15 0 30.5 -2.5t30 -9.5t24.5 -21.5t10 -37.5v-182q0 -75 37.5 -111.5t97.5 -36.5h113z" />
<glyph unicode="|" horiz-adv-x="222" d="M40 -250h142v1000h-142v-1000z" />
<glyph unicode="}" horiz-adv-x="333" d="M-5 -110h114q60 0 97.5 36.5t37.5 111.5v182q0 22 10 36.5t24.5 22t30 10t29.5 2.5v106q-14 0 -29.5 2.5t-30 10t-24.5 22t-10 36.5v182q0 75 -37.5 112t-97.5 37h-114v-100h42q33 0 43 -18.5t10 -46.5v-191q0 -27 11.5 -46t29 -29.5t37 -15.5t37.5 -6v-2 q-22 -1 -39.5 -5t-35 -14.5t-29 -31.5t-11.5 -54v-184q0 -28 -10 -46.5t-43 -18.5h-42v-100z" />
<glyph unicode="~" horiz-adv-x="600" d="M495 435q0 -1 -1 -2q-23 -35 -42 -53.5t-45 -18.5q-13 0 -29.5 6t-45.5 20l-27 12q-34 15 -61 23.5t-50 8.5q-46 0 -75.5 -24t-49.5 -62l36 -130q15 33 34.5 53.5t49.5 20.5q31 0 57.5 -10t57.5 -27q29 -16 53 -24.5t49 -8.5q41 0 68 22t57 64z" />
<glyph unicode="&#xa1;" horiz-adv-x="334" d="M250 689h-166v-184h166v184zM250 -110v312l-38 256h-90l-38 -256v-312h166z" />
<glyph unicode="&#xa2;" d="M39 169q0 -74 46 -122q47 -48 120 -60v-78h88v78q27 5 53.5 14.5t49.5 27.5q30 22 47.5 56.5t17.5 83.5v103h-172v-115q0 -24 -6.5 -38t-32.5 -14q-25 0 -32 14t-7 38v325q0 24 7 38t32 14q26 0 32.5 -14t6.5 -38v-80h172v68q0 49 -17.5 83.5t-47.5 56.5q-24 18 -51.5 28 t-51.5 14v78h-88v-78q-73 -12 -120 -60q-46 -48 -46 -122v-301z" />
<glyph unicode="&#xa3;" d="M20 330h90q4 -16 4 -38q0 -24 -3.5 -47t-12.5 -43q-21 -46 -66 -58l-7 -152q42 21 90 21q29 0 91 -12q66 -14 101 -14q79 0 126 46t47 125v43h-148q0 -25 -11 -47.5t-36 -22.5q-13 0 -43 4q-40 6 -64 6q39 41 61.5 89t22.5 100h122v88h-131q-5 26 -18 69q-12 40 -17.5 66 t-5.5 55q0 26 11 40.5t36 14.5q16 0 26.5 -7.5t15.5 -19t6.5 -23.5t1.5 -25v-33h160v39q0 99 -52.5 152t-157.5 53q-45 0 -85.5 -11.5t-72 -35t-49.5 -61t-18 -87.5q0 -49 13 -90.5t39 -95.5h-66v-88z" />
<glyph unicode="&#xa4;" d="M74 177l49 48q58 -40 127 -40q73 0 129 42l47 -46l50 50l-47 46q42 58 42 129q0 70 -42 128l47 46l-50 50l-46 -46q-58 42 -130 42t-130 -42l-46 46l-50 -50l46 -46q-41 -60 -41 -128q0 -74 43 -131l-48 -48zM147 406q0 50 29.5 82t73.5 32q43 0 73 -32t30 -82t-30 -82.5 t-73 -32.5q-44 0 -73.5 32.5t-29.5 82.5z" />
<glyph unicode="&#xa5;" d="M24 353h127l10 -50v-28h-137v-88h137v-187h178v187h139v88h-139v41l10 37h129v88h-100l102 345h-174l-55 -270h-2l-45 270h-184l104 -345h-100v-88z" />
<glyph unicode="&#xa6;" horiz-adv-x="222" d="M40 -175h142v350h-142v-350zM40 375h142v300h-142v-300z" />
<glyph unicode="&#xa7;" d="M344 311q0 -12 -8.5 -24.5t-16.5 -17.5q-19 16 -73 47q-48 28 -72 46.5t-24 38.5q0 17 19 48q1 1 3 4q9 -8 26 -20l34 -23l36 -22l35 -21q19 -11 30 -24.5t11 -31.5zM451 612q0 102 -48 151t-149 49q-84 0 -139 -49.5t-55 -134.5q0 -17 4.5 -34.5t12 -33t14 -24.5t9.5 -9 v-2q-34 -26 -54 -64t-20 -80q0 -47 15.5 -83t40 -61t51.5 -42t67 -38q52 -27 76 -47t24 -50q0 -22 -13 -37t-36 -15q-25 0 -36.5 23.5t-11.5 49.5v19h-154q0 -99 52.5 -149.5t150.5 -50.5q90 0 146 47t56 135q0 35 -11 62t-35 54q32 28 49 67.5t17 82.5q0 39 -13.5 69 t-36 52t-47 38t-62.5 37q-55 30 -81 52.5t-26 54.5q0 19 12.5 34t30.5 15q26 0 36 -16t10 -42v-30h154z" />
<glyph unicode="&#xa8;" horiz-adv-x="278" d="M276 702v130h-112v-130h112zM114 702v130h-112v-130h112z" />
<glyph unicode="&#xa9;" horiz-adv-x="880" d="M440 -13q89 0 167 30t137 85t91.5 131t32.5 166t-32.5 166.5t-91 131.5t-137 85t-167.5 30t-167.5 -30t-137 -85t-91 -131.5t-32.5 -166.5t32.5 -166.5t91.5 -131t137 -84.5t167 -30zM440 105q-63 0 -118 22t-95.5 62t-62.5 94t-22 116t22 116.5t62.5 94.5t95 62 t118.5 22q63 0 117.5 -22.5t95.5 -62.5t63 -94t22 -116q0 -61 -22.5 -115t-63 -94.5t-95.5 -62.5t-117 -22zM550 340q-3 -37 -29 -55.5t-64 -18.5q-25 0 -45.5 12.5t-34.5 34.5q-27 41 -27 92q0 60 28.5 98t75.5 38q38 0 63.5 -16.5t32.5 -52.5h100q-12 78 -64.5 123.5 t-131.5 45.5q-103 0 -166 -67q-30 -32 -46 -75.5t-16 -95.5q0 -51 16.5 -94t47.5 -75.5t74 -50t93 -17.5q79 0 132.5 47.5t64.5 126.5h-104z" />
<glyph unicode="&#xaa;" horiz-adv-x="325" d="M305 679q0 64 -31.5 92t-112.5 28q-62 0 -99.5 -23.5t-37.5 -69.5v-37h106v27q0 27 31 27q32 0 32 -32q0 -21 -16 -31.5t-50 -22.5q-9 -2 -22 -7q-39 -16 -62 -40.5t-23 -72.5q0 -28 2.5 -47.5t11 -35.5t26 -25t46.5 -9q58 0 89 37h2v-29h108v271zM193 497 q0 -12 -9 -21.5t-26 -9.5q-14 0 -20 4t-6 20v55q0 10 4 20q6 7 16 13t40 22l1 1v-104z" />
<glyph unicode="&#xab;" d="M272 187l-101 145l104 141h-130l-101 -141l98 -145h130zM453 187l-101 145l104 141h-131l-100 -141l98 -145h130z" />
<glyph unicode="&#xac;" horiz-adv-x="600" d="M411 192h142v328h-506v-142h364v-186z" />
<glyph unicode="&#xad;" horiz-adv-x="600" d="M553 254v142h-506v-142h506z" />
<glyph unicode="&#x2212;" horiz-adv-x="600" d="M553 254v142h-506v-142h506z" />
<glyph unicode="&#xae;" horiz-adv-x="880" d="M377 366h19l102 -189h129l-114 193q49 2 78 30t29 87q0 76 -46.5 105t-140.5 29h-168v-444h112v189zM377 442v103h54q32 0 51.5 -9t19.5 -38q0 -33 -15 -44.5t-46 -11.5h-64zM440 -13q89 0 167 30t137 85t91.5 131t32.5 166t-32.5 166.5t-91 131.5t-137 85t-167.5 30 t-167.5 -30t-137 -85t-91 -131.5t-32.5 -166.5t32.5 -166.5t91.5 -131t137 -84.5t167 -30zM440 105q-63 0 -118 22t-95.5 62t-62.5 94t-22 116t22 116.5t62.5 94.5t95 62t118.5 22q63 0 117.5 -22.5t95.5 -62.5t63 -94t22 -116q0 -61 -22.5 -115t-63 -94.5t-95.5 -62.5 t-117 -22z" />
<glyph unicode="&#xaf;" horiz-adv-x="278" d="M-8 710h294v76h-294v-76z" />
<glyph unicode="&#xb0;" horiz-adv-x="400" d="M366 639q0 33 -12.5 62t-35.5 51t-53 34.5t-65 12.5q-34 0 -64.5 -12.5t-53.5 -34.5t-35.5 -51t-12.5 -62q0 -32 12.5 -61.5t35.5 -51.5t53.5 -34.5t64.5 -12.5q35 0 65 12.5t53 34.5t35.5 51.5t12.5 61.5zM200 729q36 0 60 -26.5t24 -63.5t-24 -63.5t-60 -26.5t-60 26.5 t-24 63.5t24 63.5t60 26.5z" />
<glyph unicode="&#xb1;" horiz-adv-x="600" d="M229 488h-182v-142h182v-102h142v102h182v142h-182v102h-142v-102zM47 60h506v142h-506v-142z" />
<glyph unicode="&#xb2;" horiz-adv-x="325" d="M20 627h112v46q0 21 6.5 32.5t25.5 11.5t25 -12t6 -32q0 -35 -17 -59t-55 -57q-25 -22 -41.5 -39t-31.5 -40.5t-25.5 -55.5t-12.5 -73v-29h295v88h-175q1 5 4.5 12.5t7.5 14.5q14 23 31.5 40.5t45.5 40.5q47 40 69.5 72.5t22.5 85.5q0 62 -37 93.5t-105 31.5 q-79 0 -113 -32t-38 -104v-36z" />
<glyph unicode="&#xb3;" horiz-adv-x="325" d="M16 434q0 -61 38.5 -91.5t107.5 -30.5q81 0 114 39.5t33 117.5q0 40 -14 67.5t-50 39.5q35 15 47.5 40t12.5 64q0 64 -37 91.5t-106 27.5q-78 0 -111 -33t-33 -98v-8v-9h112v32q0 19 7 26.5t23 7.5q17 0 22 -8t5 -24v-39q0 -18 -14.5 -27.5t-34.5 -9.5h-20v-76 q45 -1 59 -14.5t14 -55.5v-33q0 -16 -7 -26t-24 -10t-24.5 10t-7.5 26v48h-112v-44z" />
<glyph unicode="&#xb4;" horiz-adv-x="278" d="M73 696h96l106 136h-155z" />
<glyph unicode="&#xb5;" d="M461 639h-172v-437q0 -9 -1 -18t-4.5 -19t-11.5 -17t-22 -7q-25 0 -32 17t-7 44v437h-172v-749h166v103q28 5 49.5 26.5t38.5 51.5h2v-71h166v639z" />
<glyph unicode="&#xb6;" horiz-adv-x="620" d="M206 -87h118v792h101v-792h118v886h-314q-55 0 -99.5 -8t-77 -28t-51 -55t-18.5 -87q0 -81 57.5 -126t165.5 -45v-537z" />
<glyph unicode="&#xb7;" horiz-adv-x="250" d="M217 328q0 38 -27 65t-65 27t-65 -27t-27 -65t27 -65t65 -27t65 27t27 65z" />
<glyph unicode="&#x2219;" horiz-adv-x="250" d="M217 328q0 38 -27 65t-65 27t-65 -27t-27 -65t27 -65t65 -27t65 27t27 65z" />
<glyph unicode="&#xb8;" horiz-adv-x="278" d="M109 0l-57 -74l22 -19q26 8 40 8q43 0 43 -39q0 -19 -15 -26.5t-36 -7.5q-28 0 -82 18l-19 -27q31 -13 67 -22t67 -9q20 0 39 3.5t35.5 12t27 24.5t10.5 40q0 37 -23.5 58t-61.5 21q-24 0 -40 -5h-2l40 44h-55z" />
<glyph unicode="&#xb9;" horiz-adv-x="325" d="M27 673h82v-353h124v471h-110q-8 -26 -36.5 -40t-59.5 -14v-64z" />
<glyph unicode="&#xba;" horiz-adv-x="325" d="M20 511q0 -32 12.5 -54t33.5 -34.5t45.5 -17.5t50.5 -5q27 0 51.5 5t45.5 17.5t33.5 34.5t12.5 54v177q0 32 -12.5 54t-33.5 34.5t-45.5 17.5t-51.5 5q-26 0 -50.5 -5t-45.5 -17.5t-33.5 -34.5t-12.5 -54v-177zM132 688q0 17 7 26t23 9t23.5 -9t7.5 -26v-177 q0 -17 -7.5 -26t-23.5 -9t-23 9t-7 26v177z" />
<glyph unicode="&#xbb;" d="M46 187h130l99 145l-101 141h-130l103 -141zM227 187h130l99 145l-101 141h-130l103 -141z" />
<glyph unicode="&#xbc;" horiz-adv-x="750" d="M91 -26h102l418 838h-102zM0 673h82v-353h124v471h-110q-8 -26 -36.5 -40t-59.5 -14v-64zM437 87h150v-87h124v87h39v88h-39v202h-50q-8 -36 -28 -75t-46 -64v-63h-78q15 27 41 69q42 67 62.5 114.5t25.5 113.5h-124q-11 -152 -77 -284v-101z" />
<glyph unicode="&#xbd;" horiz-adv-x="750" d="M78 -26h102l418 838h-102zM0 673h82v-353h124v471h-110q-8 -26 -36.5 -40t-59.5 -14v-64zM457 307h112v46q0 21 6.5 32.5t25.5 11.5t25 -12t6 -32q0 -35 -17 -59t-55 -57q-25 -22 -41.5 -39t-31.5 -40.5t-25.5 -55.5t-12.5 -73v-29h295v88h-175q2 6 6 14q1 7 6 13 q14 23 31.5 40.5t45.5 40.5q47 40 69.5 72.5t22.5 85.5q0 62 -37 93.5t-105 31.5q-79 0 -113 -32t-38 -104v-36z" />
<glyph unicode="&#xbe;" horiz-adv-x="750" d="M122 -26h102l418 838h-102zM0 434q0 -61 38.5 -91.5t107.5 -30.5q81 0 114 39.5t33 117.5q0 40 -14 67.5t-50 39.5q35 15 47.5 40t12.5 64q0 64 -37 91.5t-106 27.5q-78 0 -111 -33t-33 -98v-8v-9h112v32q0 19 7 26.5t23 7.5q17 0 22 -8t5 -24v-39q0 -18 -14.5 -27.5 t-34.5 -9.5h-20v-76q45 -1 59 -14.5t14 -55.5v-33q0 -16 -7 -26t-24 -10t-24.5 10t-7.5 26v48h-112v-44zM437 90h150v-87h124v87h39v88h-39v202h-50q-8 -36 -28 -75t-46 -64v-63h-78q15 27 41 69q42 67 62.5 114.5t25.5 113.5h-124q-11 -152 -77 -284v-101z" />
<glyph unicode="&#xbf;" d="M229 458q0 -60 -25.5 -100.5t-76.5 -93.5q-52 -52 -77.5 -93t-25.5 -101q0 -97 58.5 -145t162.5 -48q100 0 158.5 55t58.5 144v67h-154v-55q0 -42 -13.5 -67.5t-42.5 -25.5q-33 0 -44.5 22t-11.5 60t18 68t54 71q45 52 68 94.5t23 102.5v45h-130zM372 505v184h-166v-184 h166z" />
<glyph unicode="&#xc0;" horiz-adv-x="556" d="M142 983l109 -136h93l-44 136h-158zM7 0h184l19 142h129l17 -142h193l-150 799h-244zM276 675h2l43 -391h-92z" />
<glyph unicode="&#xc1;" horiz-adv-x="556" d="M212 847h96l106 136h-155zM7 0h184l19 142h129l17 -142h193l-150 799h-244zM276 675h2l43 -391h-92z" />
<glyph unicode="&#xc2;" horiz-adv-x="556" d="M228 847l50 76l44 -76h104l-72 136h-141l-83 -136h98zM7 0h184l19 142h129l17 -142h193l-150 799h-244zM276 675h2l43 -391h-92z" />
<glyph unicode="&#xc3;" horiz-adv-x="556" d="M393 979q-7 -18 -21 -29t-33 -11q-16 0 -52 15q-48 19 -73 19q-36 0 -59 -28.5t-40 -71.5l48 -18q8 13 21.5 24.5t27.5 11.5q20 0 53 -15q18 -9 31.5 -13.5t30.5 -4.5q44 0 69 26t45 74zM7 0h184l19 142h129l17 -142h193l-150 799h-244zM276 675h2l43 -391h-92z" />
<glyph unicode="&#xc4;" horiz-adv-x="556" d="M415 853v130h-112v-130h112zM253 853v130h-112v-130h112zM7 0h184l19 142h129l17 -142h193l-150 799h-244zM276 675h2l43 -391h-92z" />
<glyph unicode="&#xc5;" horiz-adv-x="556" d="M279 822q46 0 81 21t35 64t-35 63t-81 20q-20 0 -40.5 -4.5t-38 -14.5t-28.5 -26t-11 -38q0 -24 10.5 -40.5t28 -26.5t38 -14t41.5 -4zM279 944q28 0 46 -7t18 -30q0 -22 -19.5 -30.5t-44.5 -8.5q-27 0 -46.5 8t-19.5 31q0 22 20 29.5t46 7.5zM7 0h184l19 142h129 l17 -142h193l-150 799h-244zM276 675h2l43 -391h-92z" />
<glyph unicode="&#xc6;" horiz-adv-x="778" d="M-14 0h186l36 154h130v-154h399v154h-221v178h196v154h-196v159h214v154h-541zM333 687h5v-385h-95z" />
<glyph unicode="&#xc7;" horiz-adv-x="556" d="M292 -12q103 4 163 65.5t60 164.5v101h-184v-117q0 -12 -1 -23t-6 -23t-16 -19.5t-30 -7.5t-30 7.5t-16 19.5t-6 23t-1 23v395q0 15 1 26t6 22t16 18t30 7t30 -7t16 -18t6 -22t1 -26v-90h184v74q0 113 -65 172t-172 59t-172 -59t-65 -172v-363q0 -96 53 -156.5t146 -71.5 l-49 -64l22 -19q26 8 40 8q43 0 43 -39q0 -19 -15 -26.5t-36 -7.5q-28 0 -82 18l-19 -27q31 -13 67 -22t67 -9q20 0 39 3.5t35.5 12t27 24.5t10.5 40q0 37 -23.5 58t-61.5 21q-24 0 -40 -5h-2z" />
<glyph unicode="&#xc8;" d="M114 983l109 -136h93l-44 136h-158zM41 0h418v154h-234v178h197v154h-197v159h225v154h-409v-799z" />
<glyph unicode="&#xc9;" d="M184 847h96l106 136h-155zM41 0h418v154h-234v178h197v154h-197v159h225v154h-409v-799z" />
<glyph unicode="&#xca;" d="M200 847l50 76l44 -76h104l-72 136h-141l-83 -136h98zM41 0h418v154h-234v178h197v154h-197v159h225v154h-409v-799z" />
<glyph unicode="&#xcb;" d="M387 853v130h-112v-130h112zM225 853v130h-112v-130h112zM41 0h418v154h-234v178h197v154h-197v159h225v154h-409v-799z" />
<glyph unicode="&#xcc;" horiz-adv-x="278" d="M3 983l109 -136h93l-44 136h-158zM47 0h184v799h-184v-799z" />
<glyph unicode="&#xcd;" horiz-adv-x="278" d="M73 847h96l106 136h-155zM47 0h184v799h-184v-799z" />
<glyph unicode="&#xce;" horiz-adv-x="278" d="M89 847l50 76l44 -76h104l-72 136h-141l-83 -136h98zM47 0h184v799h-184v-799z" />
<glyph unicode="&#xcf;" horiz-adv-x="278" d="M276 853v130h-112v-130h112zM114 853v130h-112v-130h112zM47 0h184v799h-184v-799z" />
<glyph unicode="&#xd0;" horiz-adv-x="556" d="M41 0h274q38 0 73.5 12t64 37t45.5 64t17 92v380q0 49 -9.5 87.5t-32.5 67t-62 44t-96 15.5h-274v-309h-38v-124h38v-366zM225 663h29q77 0 77 -68v-400q0 -26 -20 -42.5t-53 -16.5h-33v230h56v124h-56v173z" />
<glyph unicode="&#xd1;" horiz-adv-x="611" d="M421 979q-7 -18 -21 -29t-33 -11q-16 0 -52 15q-48 19 -73 19q-36 0 -59 -28.5t-40 -71.5l48 -18q8 13 21.5 24.5t27.5 11.5q20 0 53 -15q18 -9 31.5 -13.5t30.5 -4.5q44 0 69 26t45 74zM41 0h178v494h2l149 -494h200v799h-178v-471h-2l-148 471h-201v-799z" />
<glyph unicode="&#xd2;" horiz-adv-x="556" d="M142 983l109 -136h93l-44 136h-158zM225 597q0 15 1 26t6 22t16 18t30 7t30 -7t16 -18t6 -22t1 -26v-395q0 -12 -1 -23t-6 -23t-16 -19.5t-30 -7.5t-30 7.5t-16 19.5t-6 23t-1 23v395zM41 218q0 -107 64 -169t173 -62t173 62t64 169v363q0 113 -65 172t-172 59t-172 -59 t-65 -172v-363z" />
<glyph unicode="&#xd3;" horiz-adv-x="556" d="M212 847h96l106 136h-155zM225 597q0 15 1 26t6 22t16 18t30 7t30 -7t16 -18t6 -22t1 -26v-395q0 -12 -1 -23t-6 -23t-16 -19.5t-30 -7.5t-30 7.5t-16 19.5t-6 23t-1 23v395zM41 218q0 -107 64 -169t173 -62t173 62t64 169v363q0 113 -65 172t-172 59t-172 -59t-65 -172 v-363z" />
<glyph unicode="&#xd4;" horiz-adv-x="556" d="M228 847l50 76l44 -76h104l-72 136h-141l-83 -136h98zM225 597q0 15 1 26t6 22t16 18t30 7t30 -7t16 -18t6 -22t1 -26v-395q0 -12 -1 -23t-6 -23t-16 -19.5t-30 -7.5t-30 7.5t-16 19.5t-6 23t-1 23v395zM41 218q0 -107 64 -169t173 -62t173 62t64 169v363q0 113 -65 172 t-172 59t-172 -59t-65 -172v-363z" />
<glyph unicode="&#xd5;" horiz-adv-x="556" d="M393 979q-7 -18 -21 -29t-33 -11q-16 0 -52 15q-48 19 -73 19q-36 0 -59 -28.5t-40 -71.5l48 -18q8 13 21.5 24.5t27.5 11.5q20 0 53 -15q18 -9 31.5 -13.5t30.5 -4.5q44 0 69 26t45 74zM225 597q0 15 1 26t6 22t16 18t30 7t30 -7t16 -18t6 -22t1 -26v-395q0 -12 -1 -23 t-6 -23t-16 -19.5t-30 -7.5t-30 7.5t-16 19.5t-6 23t-1 23v395zM41 218q0 -107 64 -169t173 -62t173 62t64 169v363q0 113 -65 172t-172 59t-172 -59t-65 -172v-363z" />
<glyph unicode="&#xd6;" horiz-adv-x="556" d="M415 853v130h-112v-130h112zM253 853v130h-112v-130h112zM225 597q0 15 1 26t6 22t16 18t30 7t30 -7t16 -18t6 -22t1 -26v-395q0 -12 -1 -23t-6 -23t-16 -19.5t-30 -7.5t-30 7.5t-16 19.5t-6 23t-1 23v395zM41 218q0 -107 64 -169t173 -62t173 62t64 169v363 q0 113 -65 172t-172 59t-172 -59t-65 -172v-363z" />
<glyph unicode="&#xd7;" horiz-adv-x="600" d="M198 325l-144 -144l102 -102l144 144l144 -144l102 102l-144 144l144 144l-102 102l-144 -144l-144 144l-102 -102z" />
<glyph unicode="&#xd8;" horiz-adv-x="556" d="M227 348h-2v249q0 15 1 26t6 22t16 18t30 7t30 -7t16 -18t6 -22t1 -26v-71zM329 408h2v-206q0 -12 -1 -23t-6 -23t-16 -19.5t-30 -7.5t-30 7.5t-16 19.5t-6 23t-1 23v28zM23 8l54 -27l36 61q63 -55 165 -55q109 0 173 62t64 169v363q0 58 -19 105l57 96l-54 27l-39 -66 q-32 35 -78.5 52t-103.5 17q-107 0 -172 -59t-65 -172v-363q0 -72 32 -125z" />
<glyph unicode="&#xd9;" horiz-adv-x="556" d="M142 983l109 -136h93l-44 136h-158zM41 218q0 -107 64 -169t173 -62t173 62t64 169v581h-184v-583q0 -42 -8.5 -61.5t-44.5 -19.5t-44.5 19.5t-8.5 61.5v583h-184v-581z" />
<glyph unicode="&#xda;" horiz-adv-x="556" d="M212 847h96l106 136h-155zM41 218q0 -107 64 -169t173 -62t173 62t64 169v581h-184v-583q0 -42 -8.5 -61.5t-44.5 -19.5t-44.5 19.5t-8.5 61.5v583h-184v-581z" />
<glyph unicode="&#xdb;" horiz-adv-x="556" d="M228 847l50 76l44 -76h104l-72 136h-141l-83 -136h98zM41 218q0 -107 64 -169t173 -62t173 62t64 169v581h-184v-583q0 -42 -8.5 -61.5t-44.5 -19.5t-44.5 19.5t-8.5 61.5v583h-184v-581z" />
<glyph unicode="&#xdc;" horiz-adv-x="556" d="M415 853v130h-112v-130h112zM253 853v130h-112v-130h112zM41 218q0 -107 64 -169t173 -62t173 62t64 169v581h-184v-583q0 -42 -8.5 -61.5t-44.5 -19.5t-44.5 19.5t-8.5 61.5v583h-184v-581z" />
<glyph unicode="&#xdd;" d="M184 847h96l106 136h-155zM158 316v-316h184v329l150 470h-187l-54 -270h-2l-51 270h-190z" />
<glyph unicode="&#xde;" horiz-adv-x="556" d="M225 527h21q54 0 73.5 -15t19.5 -82q0 -57 -13 -79t-55 -22h-46v198zM41 0h184v187h110q59 0 97 20t57.5 53.5t26.5 74.5t7 91q0 76 -13.5 124t-42 73.5t-72 35.5t-111.5 10h-59v130h-184v-799z" />
<glyph unicode="&#xdf;" d="M39 0h172v626q0 23 6 36t29 13q26 0 33.5 -12t7.5 -40v-32q-1 -20 -14.5 -30t-34.5 -10v-124q51 0 51 -48v-191q0 -46 -51 -46v-142h66q45 0 76 16t48.5 43.5t25 63t7.5 78.5v150q0 60 -15 91.5t-65 41.5v2q44 19 58 53t14 91q0 86 -55 127.5t-152 41.5q-45 0 -82 -8.5 t-65 -28.5t-44 -55t-16 -87v-620z" />
<glyph unicode="&#xe0;" d="M114 823l109 -136h93l-44 136h-158zM461 452q0 106 -47 153t-161 47q-89 0 -145.5 -43t-56.5 -113v-58h160v52q0 44 44 44q23 0 31.5 -13t8.5 -40q0 -40 -24.5 -60t-77.5 -41l-24 -10q-29 -13 -50.5 -26.5t-39.5 -34.5t-29 -52.5t-11 -74.5q0 -44 5 -77.5t19 -60 t42.5 -42t73.5 -15.5q36 0 69.5 16.5t52.5 45.5h2v-49h158v452zM295 149q0 -24 -10.5 -40t-29.5 -16q-38 0 -38 51v85q0 35 30 57l48 35v-172z" />
<glyph unicode="&#xe1;" d="M184 687h96l106 136h-155zM461 452q0 106 -47 153t-161 47q-89 0 -145.5 -43t-56.5 -113v-58h160v52q0 44 44 44q23 0 31.5 -13t8.5 -40q0 -40 -24.5 -60t-77.5 -41l-24 -10q-29 -13 -50.5 -26.5t-39.5 -34.5t-29 -52.5t-11 -74.5q0 -44 5 -77.5t19 -60t42.5 -42 t73.5 -15.5q36 0 69.5 16.5t52.5 45.5h2v-49h158v452zM295 149q0 -24 -10.5 -40t-29.5 -16q-38 0 -38 51v85q0 35 30 57l48 35v-172z" />
<glyph unicode="&#xe2;" d="M200 687l50 76l44 -76h104l-72 136h-141l-83 -136h98zM461 452q0 106 -47 153t-161 47q-89 0 -145.5 -43t-56.5 -113v-58h160v52q0 44 44 44q23 0 31.5 -13t8.5 -40q0 -40 -24.5 -60t-77.5 -41l-24 -10q-29 -13 -50.5 -26.5t-39.5 -34.5t-29 -52.5t-11 -74.5 q0 -44 5 -77.5t19 -60t42.5 -42t73.5 -15.5q36 0 69.5 16.5t52.5 45.5h2v-49h158v452zM295 149q0 -24 -10.5 -40t-29.5 -16q-38 0 -38 51v85q0 35 30 57l48 35v-172z" />
<glyph unicode="&#xe3;" d="M365 819q-7 -18 -21 -29t-33 -11q-16 0 -52 15q-48 19 -73 19q-36 0 -59 -28.5t-40 -71.5l48 -18q8 13 21.5 24.5t27.5 11.5q20 0 53 -15q18 -9 31.5 -13.5t30.5 -4.5q44 0 69 26t45 74zM461 452q0 106 -47 153t-161 47q-89 0 -145.5 -43t-56.5 -113v-58h160v52 q0 44 44 44q23 0 31.5 -13t8.5 -40q0 -40 -24.5 -60t-77.5 -41l-24 -10q-29 -13 -50.5 -26.5t-39.5 -34.5t-29 -52.5t-11 -74.5q0 -44 5 -77.5t19 -60t42.5 -42t73.5 -15.5q36 0 69.5 16.5t52.5 45.5h2v-49h158v452zM295 149q0 -24 -10.5 -40t-29.5 -16q-38 0 -38 51v85 q0 35 30 57l48 35v-172z" />
<glyph unicode="&#xe4;" d="M387 693v130h-112v-130h112zM225 693v130h-112v-130h112zM461 452q0 106 -47 153t-161 47q-89 0 -145.5 -43t-56.5 -113v-58h160v52q0 44 44 44q23 0 31.5 -13t8.5 -40q0 -40 -24.5 -60t-77.5 -41l-24 -10q-29 -13 -50.5 -26.5t-39.5 -34.5t-29 -52.5t-11 -74.5 q0 -44 5 -77.5t19 -60t42.5 -42t73.5 -15.5q36 0 69.5 16.5t52.5 45.5h2v-49h158v452zM295 149q0 -24 -10.5 -40t-29.5 -16q-38 0 -38 51v85q0 35 30 57l48 35v-172z" />
<glyph unicode="&#xe5;" d="M251 662q46 0 81 21t35 64t-35 63t-81 20q-20 0 -40.5 -4.5t-38 -14.5t-28.5 -26t-11 -38q0 -24 10.5 -40.5t28 -26.5t38 -14t41.5 -4zM251 784q28 0 46 -7t18 -30q0 -22 -19.5 -30.5t-44.5 -8.5q-27 0 -46.5 8t-19.5 31q0 22 20 29.5t46 7.5zM461 452q0 106 -47 153 t-161 47q-89 0 -145.5 -43t-56.5 -113v-58h160v52q0 44 44 44q23 0 31.5 -13t8.5 -40q0 -40 -24.5 -60t-77.5 -41l-24 -10q-29 -13 -50.5 -26.5t-39.5 -34.5t-29 -52.5t-11 -74.5q0 -44 5 -77.5t19 -60t42.5 -42t73.5 -15.5q36 0 69.5 16.5t52.5 45.5h2v-49h158v452z M295 149q0 -24 -10.5 -40t-29.5 -16q-38 0 -38 51v85q0 35 30 57l48 35v-172z" />
<glyph unicode="&#xe6;" horiz-adv-x="722" d="M450 482q0 24 7 38t32 14q26 0 32.5 -14t6.5 -38v-70h-78v70zM688 497q0 39 -15.5 68.5t-41 48.5t-56.5 28.5t-64 9.5q-37 0 -78.5 -7.5t-68.5 -26.5q-24 16 -56.5 25t-65.5 9q-89 0 -145.5 -43t-56.5 -113v-58h160v52q0 44 44 44q23 0 31.5 -13t8.5 -40q0 -40 -24.5 -60 t-77.5 -41l-24 -10q-28 -12 -49 -26t-38 -35t-27 -52.5t-10 -74.5q0 -47 4 -79.5t17.5 -59t42 -41.5t75.5 -15q35 0 69.5 15t70.5 62q24 -26 46 -41.5t43.5 -23.5t44 -10t54.5 -2q38 0 71.5 8.5t59.5 26.5t41 47.5t15 69.5v98h-160v-82q0 -50 -39 -50q-16 0 -27.5 9.5 t-11.5 35.5v144h238v203zM284 149q0 -24 -10.5 -40t-29.5 -16q-38 0 -38 51v85q0 35 30 57l48 35v-172z" />
<glyph unicode="&#xe7;" d="M273 -11q54 3 91.5 20.5t58.5 44t29.5 56t8.5 59.5v103h-172v-115q0 -24 -6.5 -38t-32.5 -14q-25 0 -32 14t-7 38v325q0 24 7 38t32 14q26 0 32.5 -14t6.5 -38v-80h172v68q0 32 -9.5 63t-33 58t-65.5 44t-103 17t-103 -17t-65.5 -44t-33 -58t-9.5 -63v-301q0 -29 8 -58 t28.5 -55t56 -44t87.5 -22l-56 -73l22 -19q26 8 40 8q43 0 43 -39q0 -19 -15 -26.5t-36 -7.5q-28 0 -82 18l-19 -27q31 -13 67 -22t67 -9q20 0 39 3.5t35.5 12t27 24.5t10.5 40q0 37 -23.5 58t-61.5 21q-24 0 -40 -5h-2z" />
<glyph unicode="&#xe8;" d="M114 823l109 -136h93l-44 136h-158zM39 169q0 -32 9.5 -63t33 -58t65.5 -44t103 -17t103 17t65.5 44t33 58t9.5 63v68h-172v-80q0 -24 -6.5 -38t-32.5 -14q-25 0 -32 14t-7 38v137h250v176q0 32 -9.5 63t-33 58t-65.5 44t-103 17t-103 -17t-65.5 -44t-33 -58t-9.5 -63 v-301zM211 482q0 24 7 38t32 14q26 0 32.5 -14t6.5 -38v-70h-78v70z" />
<glyph unicode="&#xe9;" d="M184 687h96l106 136h-155zM39 169q0 -32 9.5 -63t33 -58t65.5 -44t103 -17t103 17t65.5 44t33 58t9.5 63v68h-172v-80q0 -24 -6.5 -38t-32.5 -14q-25 0 -32 14t-7 38v137h250v176q0 32 -9.5 63t-33 58t-65.5 44t-103 17t-103 -17t-65.5 -44t-33 -58t-9.5 -63v-301z M211 482q0 24 7 38t32 14q26 0 32.5 -14t6.5 -38v-70h-78v70z" />
<glyph unicode="&#xea;" d="M200 687l50 76l44 -76h104l-72 136h-141l-83 -136h98zM39 169q0 -32 9.5 -63t33 -58t65.5 -44t103 -17t103 17t65.5 44t33 58t9.5 63v68h-172v-80q0 -24 -6.5 -38t-32.5 -14q-25 0 -32 14t-7 38v137h250v176q0 32 -9.5 63t-33 58t-65.5 44t-103 17t-103 -17t-65.5 -44 t-33 -58t-9.5 -63v-301zM211 482q0 24 7 38t32 14q26 0 32.5 -14t6.5 -38v-70h-78v70z" />
<glyph unicode="&#xeb;" d="M387 693v130h-112v-130h112zM225 693v130h-112v-130h112zM39 169q0 -32 9.5 -63t33 -58t65.5 -44t103 -17t103 17t65.5 44t33 58t9.5 63v68h-172v-80q0 -24 -6.5 -38t-32.5 -14q-25 0 -32 14t-7 38v137h250v176q0 32 -9.5 63t-33 58t-65.5 44t-103 17t-103 -17t-65.5 -44 t-33 -58t-9.5 -63v-301zM211 482q0 24 7 38t32 14q26 0 32.5 -14t6.5 -38v-70h-78v70z" />
<glyph unicode="&#xec;" horiz-adv-x="278" d="M3 823l109 -136h93l-44 136h-158zM225 0v639h-172v-639h172z" />
<glyph unicode="&#xed;" horiz-adv-x="278" d="M73 687h96l106 136h-155zM225 0v639h-172v-639h172z" />
<glyph unicode="&#xee;" horiz-adv-x="278" d="M89 687l50 76l44 -76h104l-72 136h-141l-83 -136h98zM225 0v639h-172v-639h172z" />
<glyph unicode="&#xef;" horiz-adv-x="278" d="M276 693v130h-112v-130h112zM114 693v130h-112v-130h112zM225 0v639h-172v-639h172z" />
<glyph unicode="&#xf0;" d="M39 169q0 -32 9.5 -63t33 -58t65.5 -44t103 -17t103 17t65.5 44t33 58t9.5 63v245q0 90 -22 162t-75 127l97 41l-48 65l-111 -46q-21 13 -64 35q-18 9 -27 14l-109 -53q25 -9 49.5 -22.5t33.5 -21.5l-88 -36l54 -56l93 39q22 -22 34.5 -48.5t12.5 -39.5q-17 5 -27 6.5 t-24 1.5q-38 0 -73.5 -10.5t-64.5 -32t-46 -52.5t-17 -70v-248zM211 412q0 24 7 38t32 14q26 0 32.5 -14t6.5 -38v-255q0 -24 -6.5 -38t-32.5 -14q-25 0 -32 14t-7 38v255z" />
<glyph unicode="&#xf1;" d="M365 819q-7 -18 -21 -29t-33 -11q-16 0 -52 15q-48 19 -73 19q-36 0 -59 -28.5t-40 -71.5l48 -18q8 13 21.5 24.5t27.5 11.5q20 0 53 -15q18 -9 31.5 -13.5t30.5 -4.5q44 0 69 26t45 74zM39 0h172v437q0 9 1 18.5t4.5 19t11.5 16.5t22 7q25 0 32 -17t7 -44v-437h172v515 q0 60 -32 98.5t-91 38.5q-47 0 -76.5 -20.5t-54.5 -63.5h-2v71h-166v-639z" />
<glyph unicode="&#xf2;" d="M114 823l109 -136h93l-44 136h-158zM39 169q0 -32 9.5 -63t33 -58t65.5 -44t103 -17t103 17t65.5 44t33 58t9.5 63v301q0 32 -9.5 63t-33 58t-65.5 44t-103 17t-103 -17t-65.5 -44t-33 -58t-9.5 -63v-301zM211 482q0 24 7 38t32 14q26 0 32.5 -14t6.5 -38v-325 q0 -24 -6.5 -38t-32.5 -14q-25 0 -32 14t-7 38v325z" />
<glyph unicode="&#xf3;" d="M184 687h96l106 136h-155zM39 169q0 -32 9.5 -63t33 -58t65.5 -44t103 -17t103 17t65.5 44t33 58t9.5 63v301q0 32 -9.5 63t-33 58t-65.5 44t-103 17t-103 -17t-65.5 -44t-33 -58t-9.5 -63v-301zM211 482q0 24 7 38t32 14q26 0 32.5 -14t6.5 -38v-325q0 -24 -6.5 -38 t-32.5 -14q-25 0 -32 14t-7 38v325z" />
<glyph unicode="&#xf4;" d="M200 687l50 76l44 -76h104l-72 136h-141l-83 -136h98zM39 169q0 -32 9.5 -63t33 -58t65.5 -44t103 -17t103 17t65.5 44t33 58t9.5 63v301q0 32 -9.5 63t-33 58t-65.5 44t-103 17t-103 -17t-65.5 -44t-33 -58t-9.5 -63v-301zM211 482q0 24 7 38t32 14q26 0 32.5 -14 t6.5 -38v-325q0 -24 -6.5 -38t-32.5 -14q-25 0 -32 14t-7 38v325z" />
<glyph unicode="&#xf5;" d="M365 819q-7 -18 -21 -29t-33 -11q-16 0 -52 15q-48 19 -73 19q-36 0 -59 -28.5t-40 -71.5l48 -18q8 13 21.5 24.5t27.5 11.5q20 0 53 -15q18 -9 31.5 -13.5t30.5 -4.5q44 0 69 26t45 74zM39 169q0 -32 9.5 -63t33 -58t65.5 -44t103 -17t103 17t65.5 44t33 58t9.5 63v301 q0 32 -9.5 63t-33 58t-65.5 44t-103 17t-103 -17t-65.5 -44t-33 -58t-9.5 -63v-301zM211 482q0 24 7 38t32 14q26 0 32.5 -14t6.5 -38v-325q0 -24 -6.5 -38t-32.5 -14q-25 0 -32 14t-7 38v325z" />
<glyph unicode="&#xf6;" d="M387 693v130h-112v-130h112zM225 693v130h-112v-130h112zM39 169q0 -32 9.5 -63t33 -58t65.5 -44t103 -17t103 17t65.5 44t33 58t9.5 63v301q0 32 -9.5 63t-33 58t-65.5 44t-103 17t-103 -17t-65.5 -44t-33 -58t-9.5 -63v-301zM211 482q0 24 7 38t32 14q26 0 32.5 -14 t6.5 -38v-325q0 -24 -6.5 -38t-32.5 -14q-25 0 -32 14t-7 38v325z" />
<glyph unicode="&#xf7;" horiz-adv-x="600" d="M553 254v142h-506v-142h506zM300 630q-41 0 -69.5 -28.5t-28.5 -69.5q0 -40 28.5 -69t69.5 -29t69.5 29t28.5 69q0 41 -28.5 69.5t-69.5 28.5zM398 118q0 41 -28.5 69.5t-69.5 28.5t-69.5 -28.5t-28.5 -69.5q0 -40 28.5 -69t69.5 -29t69.5 29t28.5 69z" />
<glyph unicode="&#xf8;" d="M213 306h-2v176q0 24 7 38t32 14q26 0 32.5 -14t6.5 -38v-58zM287 322h2v-165q0 -24 -6.5 -38t-32.5 -14q-25 0 -32 14t-7 38v47zM39 169q0 -24 5 -46.5t17 -43.5l-48 -72l43 -34l42 60q25 -22 63 -34t89 -12q61 0 103 17t65.5 44t33 58t9.5 63v301q0 46 -19 84l48 74 l-43 32l-40 -58q-25 24 -64 37t-93 13q-61 0 -103 -17t-65.5 -44t-33 -58t-9.5 -63v-301z" />
<glyph unicode="&#xf9;" d="M114 823l109 -136h93l-44 136h-158zM461 639h-172v-437q0 -9 -1 -18t-4.5 -19t-11.5 -17t-22 -7q-25 0 -32 17t-7 44v437h-172v-515q0 -60 32 -98.5t91 -38.5q47 0 76.5 20.5t54.5 63.5h2v-71h166v639z" />
<glyph unicode="&#xfa;" d="M184 687h96l106 136h-155zM461 639h-172v-437q0 -9 -1 -18t-4.5 -19t-11.5 -17t-22 -7q-25 0 -32 17t-7 44v437h-172v-515q0 -60 32 -98.5t91 -38.5q47 0 76.5 20.5t54.5 63.5h2v-71h166v639z" />
<glyph unicode="&#xfb;" d="M200 687l50 76l44 -76h104l-72 136h-141l-83 -136h98zM461 639h-172v-437q0 -9 -1 -18t-4.5 -19t-11.5 -17t-22 -7q-25 0 -32 17t-7 44v437h-172v-515q0 -60 32 -98.5t91 -38.5q47 0 76.5 20.5t54.5 63.5h2v-71h166v639z" />
<glyph unicode="&#xfc;" d="M387 693v130h-112v-130h112zM225 693v130h-112v-130h112zM461 639h-172v-437q0 -9 -1 -18t-4.5 -19t-11.5 -17t-22 -7q-25 0 -32 17t-7 44v437h-172v-515q0 -60 32 -98.5t91 -38.5q47 0 76.5 20.5t54.5 63.5h2v-71h166v639z" />
<glyph unicode="&#xfd;" horiz-adv-x="444" d="M156 687h96l106 136h-155zM53 -116h80q54 0 87 9.5t54 30.5q19 19 31 50t22 80l112 585h-169l-44 -449h-2l-43 449h-176l105 -536q5 -25 8 -43.5t3 -28.5q0 -13 -7.5 -18t-21.5 -5h-39v-124z" />
<glyph unicode="&#xfe;" d="M39 -110h172v168h2q29 -39 55.5 -55t73.5 -16q56 0 87.5 40.5t31.5 95.5v370q0 77 -30.5 118t-97.5 41q-42 0 -73 -20t-47 -57h-2v224h-172v-909zM211 418q0 23 1 39t5 31t13.5 24.5t24.5 9.5t24.5 -9.5t9.5 -32.5v-318q0 -29 -7 -37t-27 -8q-25 0 -34.5 23t-9.5 58v220z " />
<glyph unicode="&#xff;" horiz-adv-x="444" d="M359 693v130h-112v-130h112zM197 693v130h-112v-130h112zM53 -116h80q54 0 87 9.5t54 30.5q19 19 31 50t22 80l112 585h-169l-44 -449h-2l-43 449h-176l105 -536q5 -25 8 -43.5t3 -28.5q0 -13 -7.5 -18t-21.5 -5h-39v-124z" />
<glyph unicode="&#x152;" horiz-adv-x="778" d="M41 218q0 -107 64 -169t173 -62q21 0 36 1.5t31 5.5q27 6 69 6h323v154h-228v178h196v154h-196v159h223v154h-353q-16 0 -48 7q-34 6 -53 6q-107 0 -172 -59t-65 -172v-363zM225 597q0 15 1 26t6 22t16 18t30 7t30 -7t16 -18t6 -22t1 -26v-395q0 -12 -1 -23t-6 -23 t-16 -19.5t-30 -7.5t-30 7.5t-16 19.5t-6 23t-1 23v395z" />
<glyph unicode="&#x153;" horiz-adv-x="722" d="M450 482q0 24 7 38t32 14q26 0 32.5 -14t6.5 -38v-70h-78v70zM34 169q0 -32 9.5 -63t33 -58t65.5 -44t103 -17q26 0 57.5 10t55.5 34q31 -24 63 -34t80 -10q38 0 71.5 8.5t59.5 26.5t41 47.5t15 69.5v98h-160v-82q0 -50 -34 -50q-20 0 -32 9.5t-12 35.5v144h238v203 q0 39 -15.5 68.5t-41 48.5t-56.5 28.5t-64 9.5q-44 0 -73.5 -10t-64.5 -36q-56 46 -128 46q-61 0 -103 -17t-65.5 -44t-33 -58t-9.5 -63v-301zM206 482q0 24 7 38t32 14q26 0 32.5 -14t6.5 -38v-325q0 -24 -6.5 -38t-32.5 -14q-25 0 -32 14t-7 38v325z" />
<glyph unicode="&#x160;" horiz-adv-x="556" d="M201 847h141l79 136h-97l-48 -73l-44 73h-97zM34 271v-86q0 -34 12.5 -68t40.5 -64t74 -48t111 -18q68 0 117 19.5t78 51t42 66.5t13 67q0 49 -10 85t-26.5 62t-35 44t-49.5 42l-32 27l-13 10q-70 52 -105 85.5t-35 63.5q0 28 17 44t46 16q35 0 46.5 -24.5t11.5 -63.5 v-43h172v72q0 95 -56.5 148t-173.5 53q-114 0 -174.5 -54.5t-60.5 -169.5q0 -39 9.5 -69.5t26 -53.5t36.5 -41t52 -43l24 -20q11 -8 16 -12q66 -47 98 -80.5t32 -77.5q0 -27 -17 -44.5t-47 -17.5q-36 0 -49 22.5t-13 60.5v59h-178z" />
<glyph unicode="&#x161;" horiz-adv-x="444" d="M145 687h141l79 136h-97l-48 -73l-44 73h-97zM24 159q0 -84 45 -128t153 -44q65 0 106 20.5t60.5 50.5t25.5 59.5t6 57.5q0 35 -9.5 63.5t-25.5 49.5t-35 38t-48 39q-15 13 -44 35q-38 28 -56 47t-18 44q0 43 38 43q23 0 30 -15t7 -35v-34h154v34q0 86 -49.5 127 t-141.5 41q-87 0 -139.5 -47.5t-52.5 -136.5q0 -63 30.5 -106t84.5 -84l29 -22q45 -32 65.5 -54t20.5 -50q0 -47 -38 -47q-25 0 -34.5 16.5t-9.5 40.5v39h-154v-42z" />
<glyph unicode="&#x178;" d="M387 853v130h-112v-130h112zM225 853v130h-112v-130h112zM158 316v-316h184v329l150 470h-187l-54 -270h-2l-51 270h-190z" />
<glyph unicode="&#x192;" d="M93 432h88l-58 -310q-13 -68 -27.5 -94t-35.5 -26q-12 0 -30 4q-5 1 -7 1l-18 -117q40 -6 107 -6q71 0 112 55.5t63 176.5l56 316h91l19 112h-90l14 62q11 48 21.5 61.5t38.5 13.5q16 0 36 -4l22 117q-45 5 -105 5q-45 0 -76.5 -14t-51.5 -39.5t-31 -58.5t-19 -77 l-11 -66h-90z" />
<glyph unicode="&#x2c6;" horiz-adv-x="278" d="M89 696l50 76l44 -76h104l-72 136h-141l-83 -136h98z" />
<glyph unicode="&#x2dc;" horiz-adv-x="278" d="M254 828q-7 -18 -21 -29t-33 -11q-16 0 -52 15q-48 19 -73 19q-36 0 -59 -28.5t-40 -71.5l48 -18q8 13 21.5 24.5t27.5 11.5q20 0 53 -15q18 -9 31.5 -13.5t30.5 -4.5q44 0 69 26t45 74z" />
<glyph unicode="&#x2000;" horiz-adv-x="495" />
<glyph unicode="&#x2001;" horiz-adv-x="990" />
<glyph unicode="&#x2002;" horiz-adv-x="495" />
<glyph unicode="&#x2003;" horiz-adv-x="990" />
<glyph unicode="&#x2004;" horiz-adv-x="330" />
<glyph unicode="&#x2005;" horiz-adv-x="247" />
<glyph unicode="&#x2006;" horiz-adv-x="165" />
<glyph unicode="&#x2007;" horiz-adv-x="165" />
<glyph unicode="&#x2008;" horiz-adv-x="123" />
<glyph unicode="&#x2009;" horiz-adv-x="198" />
<glyph unicode="&#x200a;" horiz-adv-x="55" />
<glyph unicode="&#x2010;" horiz-adv-x="333" d="M35 264h263v148h-263v-148z" />
<glyph unicode="&#x2011;" horiz-adv-x="333" d="M35 264h263v148h-263v-148z" />
<glyph unicode="&#x2013;" d="M0 270h500v124h-500v-124z" />
<glyph unicode="&#x2014;" horiz-adv-x="1000" d="M0 270h1000v124h-1000v-124z" />
<glyph unicode="&#x2018;" horiz-adv-x="278" d="M62 517h154v172h-75q6 30 22.5 52.5t45.5 51.5l6 6h-81q-34 -36 -53 -66t-19 -68v-148z" />
<glyph unicode="&#x2019;" horiz-adv-x="278" d="M216 799h-154v-172h75q-5 -27 -20.5 -49t-43.5 -50q-3 -4 -10 -11h81l1 1q35 39 53 68.5t18 66.5v146z" />
<glyph unicode="&#x201a;" horiz-adv-x="278" d="M216 172h-154v-172h75q-5 -27 -20.5 -49t-43.5 -50q-3 -4 -10 -11h81l1 1q35 39 53 68.5t18 66.5v146z" />
<glyph unicode="&#x201c;" d="M224 517v174h-75q6 28 22.5 50.5t45.5 51.5l6 6h-81q-34 -36 -53 -66t-19 -68v-148h154zM430 517v172h-75q6 30 22.5 52.5t45.5 51.5l6 6h-81q-34 -36 -53 -66t-19 -68v-148h154z" />
<glyph unicode="&#x201d;" d="M430 799h-154v-172h75q-5 -27 -20.5 -49t-43.5 -50q-3 -4 -10 -11h81l1 1q35 39 53 68.5t18 66.5v146zM224 799h-154v-172h75q-5 -27 -20.5 -49t-43.5 -50q-3 -4 -10 -11h81l1 1q35 39 53 68.5t18 66.5v146z" />
<glyph unicode="&#x201e;" d="M430 172h-154v-172h75q-5 -27 -20.5 -49t-43.5 -50q-3 -4 -10 -11h81l1 1q35 39 53 68.5t18 66.5v146zM224 172h-154v-172h75q-5 -27 -20.5 -49t-43.5 -50q-3 -4 -10 -11h81l1 1q35 39 53 68.5t18 66.5v146z" />
<glyph unicode="&#x2020;" d="M41 444h129v-544h160v544h129v130h-129v225h-160v-225h-129v-130z" />
<glyph unicode="&#x2021;" d="M41 458h129v-220h-129v-130h129v-208h160v208h129v130h-129v220h129v130h-129v211h-160v-211h-129v-130z" />
<glyph unicode="&#x2022;" d="M50 400q0 -41 15.5 -77.5t43.5 -64t64.5 -43t76.5 -15.5t77 15.5t64.5 43t43 64t15.5 77.5t-15.5 77.5t-43 64t-64.5 43t-77 15.5t-77 -15.5t-64.5 -43t-43 -64t-15.5 -77.5z" />
<glyph unicode="&#x2026;" horiz-adv-x="1000" d="M250 0v184h-166v-184h166zM583 0v184h-166v-184h166zM916 0v184h-166v-184h166z" />
<glyph unicode="&#x202f;" horiz-adv-x="198" />
<glyph unicode="&#x2030;" horiz-adv-x="1000" d="M511 273q0 16 5 26t21 10q15 0 20.5 -10.5t5.5 -25.5v-168q0 -15 -5.5 -25.5t-20.5 -10.5q-16 0 -21 10t-5 26v168zM405 105q0 -63 36.5 -90.5t95.5 -27.5t95.5 27.5t36.5 90.5v168q0 64 -36.5 91t-95.5 27t-95.5 -27t-36.5 -91v-168zM722 105q0 -63 36.5 -90.5 t95.5 -27.5t95.5 27.5t36.5 90.5v168q0 64 -36.5 91t-95.5 27t-95.5 -27t-36.5 -91v-168zM828 273q0 16 5 26t21 10q15 0 20.5 -10.5t5.5 -25.5v-168q0 -15 -5.5 -25.5t-20.5 -10.5q-16 0 -21 10t-5 26v168zM147 -26h98l280 838h-96zM120 681q0 16 5 26t21 10 q15 0 20.5 -10.5t5.5 -25.5v-168q0 -15 -5.5 -25.5t-20.5 -10.5q-16 0 -21 10t-5 26v168zM14 513q0 -63 36.5 -90.5t95.5 -27.5t95.5 27.5t36.5 90.5v168q0 64 -36.5 91t-95.5 27t-95.5 -27t-36.5 -91v-168z" />
<glyph unicode="&#x2039;" horiz-adv-x="333" d="M279 187l-101 145l104 141h-130l-101 -141l98 -145h130z" />
<glyph unicode="&#x203a;" horiz-adv-x="333" d="M53 187h130l99 145l-101 141h-130l103 -141z" />
<glyph unicode="&#x205f;" horiz-adv-x="247" />
<glyph unicode="&#x2122;" horiz-adv-x="1000" d="M171 387h124v318h110v94h-345v-94h111v-318zM446 387h112v270h2l89 -270h88l89 270h2v-270h112v412h-158l-89 -239l-89 239h-158v-412z" />
</font>
</defs>
</svg>
